<svg width="319" height="50" viewBox="0 0 319 50" fill="none" xmlns="http://www.w3.org/2000/svg">
<g filter="url(#filter0_d)">
<path d="M4.9707 33V7.40625H12.1953C14.4219 7.40625 16.3906 7.89844 18.1016 8.88281C19.8125 9.86719 21.1309 11.2676 22.0566 13.084C22.9941 14.9004 23.4688 16.9863 23.4805 19.3418V20.9766C23.4805 23.3906 23.0117 25.5059 22.0742 27.3223C21.1484 29.1387 19.8184 30.5332 18.084 31.5059C16.3613 32.4785 14.3516 32.9766 12.0547 33H4.9707ZM8.3457 10.1836V30.2402H11.8965C14.498 30.2402 16.5195 29.4316 17.9609 27.8145C19.4141 26.1973 20.1406 23.8945 20.1406 20.9062V19.4121C20.1406 16.5059 19.4551 14.25 18.084 12.6445C16.7246 11.0273 14.791 10.207 12.2832 10.1836H8.3457ZM43.0625 21.1699H31.9707V30.2402H44.8555V33H28.5957V7.40625H44.6797V10.1836H31.9707V18.4102H43.0625V21.1699ZM57.5293 28.5176L64.8418 7.40625H68.5332L59.041 33H56.0527L46.5781 7.40625H50.252L57.5293 28.5176ZM84.7754 26.3203H74.0527L71.6445 33H68.1641L77.9375 7.40625H80.8906L90.6816 33H87.2188L84.7754 26.3203ZM75.0723 23.543H83.7734L79.4141 11.5723L75.0723 23.543ZM113.797 33H110.404L97.5195 13.2773V33H94.127V7.40625H97.5195L110.439 27.2168V7.40625H113.797V33ZM127.332 21.5918C124.438 20.7598 122.328 19.7402 121.004 18.5332C119.691 17.3145 119.035 15.8145 119.035 14.0332C119.035 12.0176 119.838 10.3535 121.443 9.04102C123.061 7.7168 125.158 7.05469 127.736 7.05469C129.494 7.05469 131.059 7.39453 132.43 8.07422C133.812 8.75391 134.879 9.69141 135.629 10.8867C136.391 12.082 136.771 13.3887 136.771 14.8066H133.379C133.379 13.2598 132.887 12.0469 131.902 11.168C130.918 10.2773 129.529 9.83203 127.736 9.83203C126.072 9.83203 124.771 10.2012 123.834 10.9395C122.908 11.666 122.445 12.6797 122.445 13.9805C122.445 15.0234 122.885 15.9082 123.764 16.6348C124.654 17.3496 126.16 18.0059 128.281 18.6035C130.414 19.2012 132.078 19.8633 133.273 20.5898C134.48 21.3047 135.371 22.1426 135.945 23.1035C136.531 24.0645 136.824 25.1953 136.824 26.4961C136.824 28.5703 136.016 30.2344 134.398 31.4883C132.781 32.7305 130.619 33.3516 127.912 33.3516C126.154 33.3516 124.514 33.0176 122.99 32.3496C121.467 31.6699 120.289 30.7441 119.457 29.5723C118.637 28.4004 118.227 27.0703 118.227 25.582H121.619C121.619 27.1289 122.188 28.3535 123.324 29.2559C124.473 30.1465 126.002 30.5918 127.912 30.5918C129.693 30.5918 131.059 30.2285 132.008 29.502C132.957 28.7754 133.432 27.7852 133.432 26.5312C133.432 25.2773 132.992 24.3105 132.113 23.6309C131.234 22.9395 129.641 22.2598 127.332 21.5918ZM160.836 33H157.443V21.1699H144.541V33H141.166V7.40625H144.541V18.4102H157.443V7.40625H160.836V33Z" fill="black"/>
<path d="M4.9707 33H4.4707V33.5H4.9707V33ZM4.9707 7.40625V6.90625H4.4707V7.40625H4.9707ZM22.0566 13.084L21.6112 13.311L21.6123 13.3133L22.0566 13.084ZM23.4805 19.3418L23.9805 19.3418L23.9805 19.3393L23.4805 19.3418ZM22.0742 27.3223L21.6299 27.0929L21.6287 27.0952L22.0742 27.3223ZM18.084 31.5059L17.8394 31.0698L17.8382 31.0705L18.084 31.5059ZM12.0547 33L12.0547 33.5L12.0598 33.5L12.0547 33ZM8.3457 10.1836V9.68359H7.8457V10.1836H8.3457ZM8.3457 30.2402H7.8457V30.7402H8.3457V30.2402ZM17.9609 27.8145L17.589 27.4803L17.5877 27.4818L17.9609 27.8145ZM18.084 12.6445L17.7012 12.9663L17.7038 12.9692L18.084 12.6445ZM12.2832 10.1836L12.2879 9.68359H12.2832V10.1836ZM5.4707 33V7.40625H4.4707V33H5.4707ZM4.9707 7.90625H12.1953V6.90625H4.9707V7.90625ZM12.1953 7.90625C14.3458 7.90625 16.2265 8.38083 17.8522 9.3162L18.3509 8.44942C16.5548 7.41604 14.498 6.90625 12.1953 6.90625V7.90625ZM17.8522 9.3162C19.4763 10.2506 20.7279 11.578 21.6112 13.311L22.5021 12.8569C21.5339 10.9572 20.1487 9.48377 18.3509 8.44942L17.8522 9.3162ZM21.6123 13.3133C22.5085 15.0496 22.9691 17.0557 22.9805 19.3443L23.9805 19.3393C23.9684 16.917 23.4798 14.7512 22.501 12.8547L21.6123 13.3133ZM22.9805 19.3418V20.9766H23.9805V19.3418H22.9805ZM22.9805 20.9766C22.9805 23.3252 22.5247 25.3592 21.6299 27.0929L22.5185 27.5516C23.4987 25.6525 23.9805 23.456 23.9805 20.9766H22.9805ZM21.6287 27.0952C20.7466 28.826 19.4854 30.1467 17.8394 31.0698L18.3286 31.942C20.1514 30.9197 21.5503 29.4514 22.5197 27.5493L21.6287 27.0952ZM17.8382 31.0705C16.2001 31.9954 14.2757 32.4773 12.0496 32.5L12.0598 33.5C14.4274 33.4758 16.5226 32.9617 18.3298 31.9413L17.8382 31.0705ZM12.0547 32.5H4.9707V33.5H12.0547V32.5ZM7.8457 10.1836V30.2402H8.8457V10.1836H7.8457ZM8.3457 30.7402H11.8965V29.7402H8.3457V30.7402ZM11.8965 30.7402C14.6094 30.7402 16.7789 29.892 18.3342 28.1471L17.5877 27.4818C16.2601 28.9712 14.3867 29.7402 11.8965 29.7402V30.7402ZM18.3329 28.1486C19.895 26.4102 20.6406 23.9714 20.6406 20.9062H19.6406C19.6406 23.8176 18.9332 25.9844 17.589 27.4803L18.3329 28.1486ZM20.6406 20.9062V19.4121H19.6406V20.9062H20.6406ZM20.6406 19.4121C20.6406 16.4316 19.9374 14.0448 18.4642 12.3198L17.7038 12.9692C18.9728 14.4552 19.6406 16.5802 19.6406 19.4121H20.6406ZM18.4667 12.3228C16.9956 10.5727 14.9116 9.70814 12.2879 9.68362L12.2785 10.6836C14.6704 10.7059 16.4536 11.482 17.7012 12.9663L18.4667 12.3228ZM12.2832 9.68359H8.3457V10.6836H12.2832V9.68359ZM43.0625 21.1699V21.6699H43.5625V21.1699H43.0625ZM31.9707 21.1699V20.6699H31.4707V21.1699H31.9707ZM31.9707 30.2402H31.4707V30.7402H31.9707V30.2402ZM44.8555 30.2402H45.3555V29.7402H44.8555V30.2402ZM44.8555 33V33.5H45.3555V33H44.8555ZM28.5957 33H28.0957V33.5H28.5957V33ZM28.5957 7.40625V6.90625H28.0957V7.40625H28.5957ZM44.6797 7.40625H45.1797V6.90625H44.6797V7.40625ZM44.6797 10.1836V10.6836H45.1797V10.1836H44.6797ZM31.9707 10.1836V9.68359H31.4707V10.1836H31.9707ZM31.9707 18.4102H31.4707V18.9102H31.9707V18.4102ZM43.0625 18.4102H43.5625V17.9102H43.0625V18.4102ZM43.0625 20.6699H31.9707V21.6699H43.0625V20.6699ZM31.4707 21.1699V30.2402H32.4707V21.1699H31.4707ZM31.9707 30.7402H44.8555V29.7402H31.9707V30.7402ZM44.3555 30.2402V33H45.3555V30.2402H44.3555ZM44.8555 32.5H28.5957V33.5H44.8555V32.5ZM29.0957 33V7.40625H28.0957V33H29.0957ZM28.5957 7.90625H44.6797V6.90625H28.5957V7.90625ZM44.1797 7.40625V10.1836H45.1797V7.40625H44.1797ZM44.6797 9.68359H31.9707V10.6836H44.6797V9.68359ZM31.4707 10.1836V18.4102H32.4707V10.1836H31.4707ZM31.9707 18.9102H43.0625V17.9102H31.9707V18.9102ZM42.5625 18.4102V21.1699H43.5625V18.4102H42.5625ZM57.5293 28.5176L57.0566 28.6805L57.5282 30.0485L58.0018 28.6812L57.5293 28.5176ZM64.8418 7.40625V6.90625H64.4858L64.3693 7.2426L64.8418 7.40625ZM68.5332 7.40625L69.002 7.58012L69.2519 6.90625H68.5332V7.40625ZM59.041 33V33.5H59.3889L59.5098 33.1739L59.041 33ZM56.0527 33L55.5838 33.1736L55.7047 33.5H56.0527V33ZM46.5781 7.40625V6.90625H45.8599L46.1092 7.57983L46.5781 7.40625ZM50.252 7.40625L50.7247 7.2433L50.6085 6.90625H50.252V7.40625ZM58.0018 28.6812L65.3143 7.5699L64.3693 7.2426L57.0568 28.3539L58.0018 28.6812ZM64.8418 7.90625H68.5332V6.90625H64.8418V7.90625ZM68.0644 7.23238L58.5722 32.8261L59.5098 33.1739L69.002 7.58012L68.0644 7.23238ZM59.041 32.5H56.0527V33.5H59.041V32.5ZM56.5216 32.8264L47.047 7.23267L46.1092 7.57983L55.5838 33.1736L56.5216 32.8264ZM46.5781 7.90625H50.252V6.90625H46.5781V7.90625ZM49.7792 7.5692L57.0566 28.6805L58.002 28.3546L50.7247 7.2433L49.7792 7.5692ZM84.7754 26.3203L85.245 26.1485L85.1249 25.8203H84.7754V26.3203ZM74.0527 26.3203V25.8203H73.7015L73.5824 26.1507L74.0527 26.3203ZM71.6445 33V33.5H71.9958L72.1149 33.1696L71.6445 33ZM68.1641 33L67.697 32.8216L67.4379 33.5H68.1641V33ZM77.9375 7.40625V6.90625H77.5932L77.4704 7.22788L77.9375 7.40625ZM80.8906 7.40625L81.3576 7.2276L81.2347 6.90625H80.8906V7.40625ZM90.6816 33V33.5H91.4083L91.1486 32.8213L90.6816 33ZM87.2188 33L86.7492 33.1718L86.8692 33.5H87.2188V33ZM75.0723 23.543L74.6022 23.3725L74.359 24.043H75.0723V23.543ZM83.7734 23.543V24.043H84.4876L84.2433 23.3719L83.7734 23.543ZM79.4141 11.5723L79.8839 11.4012L79.4131 10.1085L78.944 11.4018L79.4141 11.5723ZM84.7754 25.8203H74.0527V26.8203H84.7754V25.8203ZM73.5824 26.1507L71.1742 32.8304L72.1149 33.1696L74.5231 26.4899L73.5824 26.1507ZM71.6445 32.5H68.1641V33.5H71.6445V32.5ZM68.6312 33.1784L78.4046 7.58462L77.4704 7.22788L67.697 32.8216L68.6312 33.1784ZM77.9375 7.90625H80.8906V6.90625H77.9375V7.90625ZM80.4236 7.5849L90.2146 33.1787L91.1486 32.8213L81.3576 7.2276L80.4236 7.5849ZM90.6816 32.5H87.2188V33.5H90.6816V32.5ZM87.6883 32.8282L85.245 26.1485L84.3058 26.4921L86.7492 33.1718L87.6883 32.8282ZM75.0723 24.043H83.7734V23.043H75.0723V24.043ZM84.2433 23.3719L79.8839 11.4012L78.9442 11.7434L83.3036 23.7141L84.2433 23.3719ZM78.944 11.4018L74.6022 23.3725L75.5423 23.7135L79.8841 11.7427L78.944 11.4018ZM113.797 33V33.5H114.297V33H113.797ZM110.404 33L109.986 33.2735L110.134 33.5H110.404V33ZM97.5195 13.2773L97.9381 13.0039L97.0195 11.5978V13.2773H97.5195ZM97.5195 33V33.5H98.0195V33H97.5195ZM94.127 33H93.627V33.5H94.127V33ZM94.127 7.40625V6.90625H93.627V7.40625H94.127ZM97.5195 7.40625L97.9383 7.13312L97.7904 6.90625H97.5195V7.40625ZM110.439 27.2168L110.021 27.4899L110.939 28.8988V27.2168H110.439ZM110.439 7.40625V6.90625H109.939V7.40625H110.439ZM113.797 7.40625H114.297V6.90625H113.797V7.40625ZM113.797 32.5H110.404V33.5H113.797V32.5ZM110.823 32.7265L97.9381 13.0039L97.1009 13.5508L109.986 33.2735L110.823 32.7265ZM97.0195 13.2773V33H98.0195V13.2773H97.0195ZM97.5195 32.5H94.127V33.5H97.5195V32.5ZM94.627 33V7.40625H93.627V33H94.627ZM94.127 7.90625H97.5195V6.90625H94.127V7.90625ZM97.1007 7.67938L110.021 27.4899L110.858 26.9437L97.9383 7.13312L97.1007 7.67938ZM110.939 27.2168V7.40625H109.939V27.2168H110.939ZM110.439 7.90625H113.797V6.90625H110.439V7.90625ZM113.297 7.40625V33H114.297V7.40625H113.297ZM127.332 21.5918L127.471 21.1115L127.47 21.1113L127.332 21.5918ZM121.004 18.5332L120.664 18.8996L120.667 18.9027L121.004 18.5332ZM121.443 9.04102L121.76 9.42812L121.76 9.42787L121.443 9.04102ZM132.43 8.07422L132.208 8.5222L132.209 8.52294L132.43 8.07422ZM135.629 10.8867L135.205 11.1525L135.207 11.1554L135.629 10.8867ZM136.771 14.8066V15.3066H137.271V14.8066H136.771ZM133.379 14.8066H132.879V15.3066H133.379V14.8066ZM131.902 11.168L131.567 11.5387L131.569 11.5409L131.902 11.168ZM123.834 10.9395L124.143 11.3328L124.143 11.3323L123.834 10.9395ZM123.764 16.6348L123.445 17.0202L123.451 17.0247L123.764 16.6348ZM128.281 18.6035L128.146 19.0848L128.146 19.085L128.281 18.6035ZM133.273 20.5898L133.014 21.0171L133.019 21.0201L133.273 20.5898ZM135.945 23.1035L135.516 23.36L135.518 23.3638L135.945 23.1035ZM134.398 31.4883L134.703 31.8848L134.705 31.8834L134.398 31.4883ZM122.99 32.3496L122.787 32.8062L122.789 32.8075L122.99 32.3496ZM119.457 29.5723L119.047 29.859L119.049 29.8617L119.457 29.5723ZM118.227 25.582V25.082H117.727V25.582H118.227ZM121.619 25.582H122.119V25.082H121.619V25.582ZM123.324 29.2559L123.013 29.6475L123.018 29.651L123.324 29.2559ZM132.113 23.6309L131.804 24.0239L131.807 24.0264L132.113 23.6309ZM127.47 21.1113C124.606 20.2878 122.582 19.2951 121.341 18.1637L120.667 18.9027C122.074 20.1854 124.269 21.2317 127.194 22.0723L127.47 21.1113ZM121.344 18.1668C120.133 17.0421 119.535 15.6745 119.535 14.0332H118.535C118.535 15.9544 119.25 17.5868 120.664 18.8996L121.344 18.1668ZM119.535 14.0332C119.535 12.1725 120.267 10.6488 121.76 9.42812L121.127 8.65391C119.409 10.0582 118.535 11.8626 118.535 14.0332H119.535ZM121.76 9.42787C123.269 8.19268 125.246 7.55469 127.736 7.55469V6.55469C125.071 6.55469 122.852 7.24092 121.127 8.65416L121.76 9.42787ZM127.736 7.55469C129.429 7.55469 130.915 7.88148 132.208 8.5222L132.652 7.62624C131.202 6.90758 129.56 6.55469 127.736 6.55469V7.55469ZM132.209 8.52294C133.517 9.16557 134.509 10.043 135.205 11.1525L136.052 10.621C135.249 9.33984 134.108 8.34224 132.65 7.62549L132.209 8.52294ZM135.207 11.1554C135.918 12.2704 136.271 13.4838 136.271 14.8066H137.271C137.271 13.2935 136.863 11.8936 136.051 10.618L135.207 11.1554ZM136.771 14.3066H133.379V15.3066H136.771V14.3066ZM133.879 14.8066C133.879 13.1443 133.345 11.7853 132.235 10.795L131.569 11.5409C132.429 12.3084 132.879 13.3753 132.879 14.8066H133.879ZM132.238 10.7972C131.133 9.79795 129.609 9.33203 127.736 9.33203V10.332C129.449 10.332 130.703 10.7567 131.567 11.5387L132.238 10.7972ZM127.736 9.33203C126.004 9.33203 124.579 9.71609 123.525 10.5466L124.143 11.3323C124.964 10.6862 126.141 10.332 127.736 10.332V9.33203ZM123.525 10.5461C122.465 11.3783 121.945 12.5446 121.945 13.9805H122.945C122.945 12.8147 123.351 11.9537 124.143 11.3328L123.525 10.5461ZM121.945 13.9805C121.945 15.1876 122.463 16.2087 123.445 17.0201L124.082 16.2494C123.306 15.6077 122.945 14.8592 122.945 13.9805H121.945ZM123.451 17.0247C124.422 17.8047 126.009 18.4827 128.146 19.0848L128.417 18.1223C126.312 17.529 124.886 16.8945 124.077 16.2448L123.451 17.0247ZM128.146 19.085C130.258 19.6766 131.873 20.3238 133.014 21.0171L133.533 20.1626C132.283 19.4027 130.57 18.7257 128.416 18.1221L128.146 19.085ZM133.019 21.0201C134.172 21.703 134.994 22.4865 135.516 23.36L136.375 22.847C135.748 21.7987 134.789 20.9064 133.528 20.1596L133.019 21.0201ZM135.518 23.3638C136.049 24.2348 136.324 25.2726 136.324 26.4961H137.324C137.324 25.118 137.013 23.8941 136.372 22.8432L135.518 23.3638ZM136.324 26.4961C136.324 28.4182 135.585 29.9354 134.092 31.0931L134.705 31.8834C136.446 30.5333 137.324 28.7224 137.324 26.4961H136.324ZM134.094 31.0918C132.589 32.2478 130.545 32.8516 127.912 32.8516V33.8516C130.693 33.8516 132.974 33.2131 134.703 31.8848L134.094 31.0918ZM127.912 32.8516C126.219 32.8516 124.648 32.5303 123.191 31.8917L122.789 32.8075C124.38 33.5048 126.089 33.8516 127.912 33.8516V32.8516ZM123.194 31.893C121.739 31.2438 120.637 30.3707 119.865 29.2828L119.049 29.8617C119.941 31.1176 121.195 32.096 122.787 32.8062L123.194 31.893ZM119.867 29.2855C119.108 28.2012 118.727 26.9721 118.727 25.582H117.727C117.727 27.1685 118.166 28.5995 119.047 29.859L119.867 29.2855ZM118.227 26.082H121.619V25.082H118.227V26.082ZM121.119 25.582C121.119 27.2699 121.748 28.6433 123.013 29.6475L123.635 28.8642C122.627 28.0637 122.119 26.9879 122.119 25.582H121.119ZM123.018 29.651C124.278 30.6283 125.926 31.0918 127.912 31.0918V30.0918C126.078 30.0918 124.667 29.6647 123.631 28.8607L123.018 29.651ZM127.912 31.0918C129.752 31.0918 131.242 30.718 132.312 29.899L131.704 29.1049C130.875 29.739 129.635 30.0918 127.912 30.0918V31.0918ZM132.312 29.899C133.391 29.0726 133.932 27.9319 133.932 26.5312H132.932C132.932 27.6384 132.523 28.4782 131.704 29.1049L132.312 29.899ZM133.932 26.5312C133.932 25.1452 133.437 24.0228 132.419 23.2353L131.807 24.0264C132.547 24.5983 132.932 25.4095 132.932 26.5312H133.932ZM132.422 23.2379C131.462 22.4823 129.787 21.7815 127.471 21.1115L127.193 22.0721C129.495 22.738 131.007 23.3966 131.804 24.0238L132.422 23.2379ZM160.836 33V33.5H161.336V33H160.836ZM157.443 33H156.943V33.5H157.443V33ZM157.443 21.1699H157.943V20.6699H157.443V21.1699ZM144.541 21.1699V20.6699H144.041V21.1699H144.541ZM144.541 33V33.5H145.041V33H144.541ZM141.166 33H140.666V33.5H141.166V33ZM141.166 7.40625V6.90625H140.666V7.40625H141.166ZM144.541 7.40625H145.041V6.90625H144.541V7.40625ZM144.541 18.4102H144.041V18.9102H144.541V18.4102ZM157.443 18.4102V18.9102H157.943V18.4102H157.443ZM157.443 7.40625V6.90625H156.943V7.40625H157.443ZM160.836 7.40625H161.336V6.90625H160.836V7.40625ZM160.836 32.5H157.443V33.5H160.836V32.5ZM157.943 33V21.1699H156.943V33H157.943ZM157.443 20.6699H144.541V21.6699H157.443V20.6699ZM144.041 21.1699V33H145.041V21.1699H144.041ZM144.541 32.5H141.166V33.5H144.541V32.5ZM141.666 33V7.40625H140.666V33H141.666ZM141.166 7.90625H144.541V6.90625H141.166V7.90625ZM144.041 7.40625V18.4102H145.041V7.40625H144.041ZM144.541 18.9102H157.443V17.9102H144.541V18.9102ZM157.943 18.4102V7.40625H156.943V18.4102H157.943ZM157.443 7.90625H160.836V6.90625H157.443V7.90625ZM160.336 7.40625V33H161.336V7.40625H160.336Z" fill="black"/>
</g>
<g filter="url(#filter1_d)">
<path d="M189.693 7.40625H193.086V25.5293C193.086 27.9785 192.348 29.8945 190.871 31.2773C189.406 32.6602 187.449 33.3516 185 33.3516C182.457 33.3516 180.477 32.7012 179.059 31.4004C177.641 30.0996 176.932 28.2773 176.932 25.9336H180.307C180.307 27.3984 180.705 28.541 181.502 29.3613C182.311 30.1816 183.477 30.5918 185 30.5918C186.395 30.5918 187.52 30.1523 188.375 29.2734C189.242 28.3945 189.682 27.1641 189.693 25.582V7.40625ZM213.301 21.1699H202.209V30.2402H215.094V33H198.834V7.40625H214.918V10.1836H202.209V18.4102H213.301V21.1699ZM237.33 10.1836H229.104V33H225.746V10.1836H217.537V7.40625H237.33V10.1836ZM260.797 33H257.404V21.1699H244.502V33H241.127V7.40625H244.502V18.4102H257.404V7.40625H260.797V33ZM275.264 28.5176L282.576 7.40625H286.268L276.775 33H273.787L264.312 7.40625H267.986L275.264 28.5176ZM302.51 26.3203H291.787L289.379 33H285.898L295.672 7.40625H298.625L308.416 33H304.953L302.51 26.3203ZM292.807 23.543H301.508L297.148 11.5723L292.807 23.543Z" fill="#F3B81E"/>
<path d="M189.693 7.40625V6.90625H189.193V7.40625H189.693ZM193.086 7.40625H193.586V6.90625H193.086V7.40625ZM190.871 31.2773L190.529 30.9124L190.528 30.9138L190.871 31.2773ZM176.932 25.9336V25.4336H176.432V25.9336H176.932ZM180.307 25.9336H180.807V25.4336H180.307V25.9336ZM181.502 29.3613L181.143 29.7097L181.146 29.7123L181.502 29.3613ZM188.375 29.2734L188.019 28.9223L188.017 28.9247L188.375 29.2734ZM189.693 25.582L190.193 25.5857V25.582H189.693ZM189.693 7.90625H193.086V6.90625H189.693V7.90625ZM192.586 7.40625V25.5293H193.586V7.40625H192.586ZM192.586 25.5293C192.586 27.8716 191.884 29.6436 190.529 30.9124L191.213 31.6423C192.811 30.1454 193.586 28.0854 193.586 25.5293H192.586ZM190.528 30.9138C189.175 32.1908 187.351 32.8516 185 32.8516V33.8516C187.548 33.8516 189.637 33.1295 191.214 31.6409L190.528 30.9138ZM185 32.8516C182.541 32.8516 180.696 32.2239 179.397 31.0319L178.721 31.7688C180.257 33.1785 182.373 33.8516 185 33.8516V32.8516ZM179.397 31.0319C178.104 29.8461 177.432 28.1702 177.432 25.9336H176.432C176.432 28.3844 177.177 30.3531 178.721 31.7688L179.397 31.0319ZM176.932 26.4336H180.307V25.4336H176.932V26.4336ZM179.807 25.9336C179.807 27.4904 180.232 28.7719 181.143 29.7097L181.861 29.0129C181.178 28.3101 180.807 27.3064 180.807 25.9336H179.807ZM181.146 29.7123C182.076 30.6558 183.388 31.0918 185 31.0918V30.0918C183.566 30.0918 182.545 29.7075 181.858 29.0103L181.146 29.7123ZM185 31.0918C186.509 31.0918 187.77 30.6114 188.733 29.6222L188.017 28.9247C187.269 29.6933 186.28 30.0918 185 30.0918V31.0918ZM188.731 29.6246C189.713 28.629 190.181 27.2597 190.193 25.5857L189.193 25.5783C189.182 27.0684 188.771 28.16 188.019 28.9223L188.731 29.6246ZM190.193 25.582V7.40625H189.193V25.582H190.193ZM213.301 21.1699V21.6699H213.801V21.1699H213.301ZM202.209 21.1699V20.6699H201.709V21.1699H202.209ZM202.209 30.2402H201.709V30.7402H202.209V30.2402ZM215.094 30.2402H215.594V29.7402H215.094V30.2402ZM215.094 33V33.5H215.594V33H215.094ZM198.834 33H198.334V33.5H198.834V33ZM198.834 7.40625V6.90625H198.334V7.40625H198.834ZM214.918 7.40625H215.418V6.90625H214.918V7.40625ZM214.918 10.1836V10.6836H215.418V10.1836H214.918ZM202.209 10.1836V9.68359H201.709V10.1836H202.209ZM202.209 18.4102H201.709V18.9102H202.209V18.4102ZM213.301 18.4102H213.801V17.9102H213.301V18.4102ZM213.301 20.6699H202.209V21.6699H213.301V20.6699ZM201.709 21.1699V30.2402H202.709V21.1699H201.709ZM202.209 30.7402H215.094V29.7402H202.209V30.7402ZM214.594 30.2402V33H215.594V30.2402H214.594ZM215.094 32.5H198.834V33.5H215.094V32.5ZM199.334 33V7.40625H198.334V33H199.334ZM198.834 7.90625H214.918V6.90625H198.834V7.90625ZM214.418 7.40625V10.1836H215.418V7.40625H214.418ZM214.918 9.68359H202.209V10.6836H214.918V9.68359ZM201.709 10.1836V18.4102H202.709V10.1836H201.709ZM202.209 18.9102H213.301V17.9102H202.209V18.9102ZM212.801 18.4102V21.1699H213.801V18.4102H212.801ZM237.33 10.1836V10.6836H237.83V10.1836H237.33ZM229.104 10.1836V9.68359H228.604V10.1836H229.104ZM229.104 33V33.5H229.604V33H229.104ZM225.746 33H225.246V33.5H225.746V33ZM225.746 10.1836H226.246V9.68359H225.746V10.1836ZM217.537 10.1836H217.037V10.6836H217.537V10.1836ZM217.537 7.40625V6.90625H217.037V7.40625H217.537ZM237.33 7.40625H237.83V6.90625H237.33V7.40625ZM237.33 9.68359H229.104V10.6836H237.33V9.68359ZM228.604 10.1836V33H229.604V10.1836H228.604ZM229.104 32.5H225.746V33.5H229.104V32.5ZM226.246 33V10.1836H225.246V33H226.246ZM225.746 9.68359H217.537V10.6836H225.746V9.68359ZM218.037 10.1836V7.40625H217.037V10.1836H218.037ZM217.537 7.90625H237.33V6.90625H217.537V7.90625ZM236.83 7.40625V10.1836H237.83V7.40625H236.83ZM260.797 33V33.5H261.297V33H260.797ZM257.404 33H256.904V33.5H257.404V33ZM257.404 21.1699H257.904V20.6699H257.404V21.1699ZM244.502 21.1699V20.6699H244.002V21.1699H244.502ZM244.502 33V33.5H245.002V33H244.502ZM241.127 33H240.627V33.5H241.127V33ZM241.127 7.40625V6.90625H240.627V7.40625H241.127ZM244.502 7.40625H245.002V6.90625H244.502V7.40625ZM244.502 18.4102H244.002V18.9102H244.502V18.4102ZM257.404 18.4102V18.9102H257.904V18.4102H257.404ZM257.404 7.40625V6.90625H256.904V7.40625H257.404ZM260.797 7.40625H261.297V6.90625H260.797V7.40625ZM260.797 32.5H257.404V33.5H260.797V32.5ZM257.904 33V21.1699H256.904V33H257.904ZM257.404 20.6699H244.502V21.6699H257.404V20.6699ZM244.002 21.1699V33H245.002V21.1699H244.002ZM244.502 32.5H241.127V33.5H244.502V32.5ZM241.627 33V7.40625H240.627V33H241.627ZM241.127 7.90625H244.502V6.90625H241.127V7.90625ZM244.002 7.40625V18.4102H245.002V7.40625H244.002ZM244.502 18.9102H257.404V17.9102H244.502V18.9102ZM257.904 18.4102V7.40625H256.904V18.4102H257.904ZM257.404 7.90625H260.797V6.90625H257.404V7.90625ZM260.297 7.40625V33H261.297V7.40625H260.297ZM275.264 28.5176L274.791 28.6805L275.263 30.0485L275.736 28.6812L275.264 28.5176ZM282.576 7.40625V6.90625H282.22L282.104 7.2426L282.576 7.40625ZM286.268 7.40625L286.736 7.58012L286.986 6.90625H286.268V7.40625ZM276.775 33V33.5H277.123L277.244 33.1739L276.775 33ZM273.787 33L273.318 33.1736L273.439 33.5H273.787V33ZM264.312 7.40625V6.90625H263.594L263.844 7.57983L264.312 7.40625ZM267.986 7.40625L268.459 7.2433L268.343 6.90625H267.986V7.40625ZM275.736 28.6812L283.049 7.5699L282.104 7.2426L274.791 28.3539L275.736 28.6812ZM282.576 7.90625H286.268V6.90625H282.576V7.90625ZM285.799 7.23238L276.307 32.8261L277.244 33.1739L286.736 7.58012L285.799 7.23238ZM276.775 32.5H273.787V33.5H276.775V32.5ZM274.256 32.8264L264.781 7.23267L263.844 7.57983L273.318 33.1736L274.256 32.8264ZM264.312 7.90625H267.986V6.90625H264.312V7.90625ZM267.514 7.5692L274.791 28.6805L275.736 28.3546L268.459 7.2433L267.514 7.5692ZM302.51 26.3203L302.979 26.1485L302.859 25.8203H302.51V26.3203ZM291.787 26.3203V25.8203H291.436L291.317 26.1507L291.787 26.3203ZM289.379 33V33.5H289.73L289.849 33.1696L289.379 33ZM285.898 33L285.431 32.8216L285.172 33.5H285.898V33ZM295.672 7.40625V6.90625H295.328L295.205 7.22788L295.672 7.40625ZM298.625 7.40625L299.092 7.2276L298.969 6.90625H298.625V7.40625ZM308.416 33V33.5H309.143L308.883 32.8213L308.416 33ZM304.953 33L304.484 33.1718L304.604 33.5H304.953V33ZM292.807 23.543L292.337 23.3725L292.093 24.043H292.807V23.543ZM301.508 23.543V24.043H302.222L301.978 23.3719L301.508 23.543ZM297.148 11.5723L297.618 11.4012L297.147 10.1085L296.678 11.4018L297.148 11.5723ZM302.51 25.8203H291.787V26.8203H302.51V25.8203ZM291.317 26.1507L288.909 32.8304L289.849 33.1696L292.257 26.4899L291.317 26.1507ZM289.379 32.5H285.898V33.5H289.379V32.5ZM286.366 33.1784L296.139 7.58462L295.205 7.22788L285.431 32.8216L286.366 33.1784ZM295.672 7.90625H298.625V6.90625H295.672V7.90625ZM298.158 7.5849L307.949 33.1787L308.883 32.8213L299.092 7.2276L298.158 7.5849ZM308.416 32.5H304.953V33.5H308.416V32.5ZM305.423 32.8282L302.979 26.1485L302.04 26.4921L304.484 33.1718L305.423 32.8282ZM292.807 24.043H301.508V23.043H292.807V24.043ZM301.978 23.3719L297.618 11.4012L296.679 11.7434L301.038 23.7141L301.978 23.3719ZM296.678 11.4018L292.337 23.3725L293.277 23.7135L297.618 11.7427L296.678 11.4018Z" fill="#F3B81E"/>
</g>
<defs>
<filter id="filter0_d" x="0.470703" y="6.55469" width="164.865" height="35.2969" filterUnits="userSpaceOnUse" color-interpolation-filters="sRGB">
<feFlood flood-opacity="0" result="BackgroundImageFix"/>
<feColorMatrix in="SourceAlpha" type="matrix" values="0 0 0 0 0 0 0 0 0 0 0 0 0 0 0 0 0 0 127 0" result="hardAlpha"/>
<feOffset dy="4"/>
<feGaussianBlur stdDeviation="2"/>
<feComposite in2="hardAlpha" operator="out"/>
<feColorMatrix type="matrix" values="0 0 0 0 0 0 0 0 0 0 0 0 0 0 0 0 0 0 0.25 0"/>
<feBlend mode="normal" in2="BackgroundImageFix" result="effect1_dropShadow"/>
<feBlend mode="normal" in="SourceGraphic" in2="effect1_dropShadow" result="shape"/>
</filter>
<filter id="filter1_d" x="172.432" y="6.90625" width="140.711" height="34.9453" filterUnits="userSpaceOnUse" color-interpolation-filters="sRGB">
<feFlood flood-opacity="0" result="BackgroundImageFix"/>
<feColorMatrix in="SourceAlpha" type="matrix" values="0 0 0 0 0 0 0 0 0 0 0 0 0 0 0 0 0 0 127 0" result="hardAlpha"/>
<feOffset dy="4"/>
<feGaussianBlur stdDeviation="2"/>
<feComposite in2="hardAlpha" operator="out"/>
<feColorMatrix type="matrix" values="0 0 0 0 0 0 0 0 0 0 0 0 0 0 0 0 0 0 0.25 0"/>
<feBlend mode="normal" in2="BackgroundImageFix" result="effect1_dropShadow"/>
<feBlend mode="normal" in="SourceGraphic" in2="effect1_dropShadow" result="shape"/>
</filter>
</defs>
</svg>
